<?xml version="1.0" encoding="UTF-8" standalone="no"?>
<!DOCTYPE svg PUBLIC "-//W3C//DTD SVG 1.1//EN"
 "http://www.w3.org/Graphics/SVG/1.1/DTD/svg11.dtd">
<!-- Generated by graphviz version 2.49.0 (20210828.1703)
 -->
<!-- Title: graph1 Pages: 1 -->
<svg width="288pt" height="108pt"
 viewBox="0.00 0.00 288.00 108.00" xmlns="http://www.w3.org/2000/svg" xmlns:xlink="http://www.w3.org/1999/xlink">
<g id="graph0" class="graph" transform="scale(1 1) rotate(0) translate(4 104)">
<title>graph1</title>
<polygon fill="white" stroke="transparent" points="-4,4 -4,-104 284,-104 284,4 -4,4"/>
<!-- A -->
<g id="node1" class="node">
<title>A</title>
<ellipse fill="none" stroke="black" cx="18" cy="-31" rx="18" ry="18"/>
<text text-anchor="middle" x="18" y="-27.3" font-family="Times New Roman,serif" font-size="14.00">A</text>
</g>
<!-- B -->
<g id="node2" class="node">
<title>B</title>
<ellipse fill="none" stroke="black" cx="104" cy="-82" rx="18" ry="18"/>
<text text-anchor="middle" x="104" y="-78.3" font-family="Times New Roman,serif" font-size="14.00">B</text>
</g>
<!-- A&#45;&gt;B -->
<g id="edge1" class="edge">
<title>A&#45;&gt;B</title>
<path fill="none" stroke="black" d="M34.02,-40.12C46.56,-47.73 64.67,-58.73 79.19,-67.54"/>
<polygon fill="black" stroke="black" points="77.75,-70.76 88.11,-72.96 81.38,-64.78 77.75,-70.76"/>
<text text-anchor="middle" x="61" y="-62.8" font-family="Times New Roman,serif" font-size="14.00">10</text>
</g>
<!-- C -->
<g id="node3" class="node">
<title>C</title>
<ellipse fill="none" stroke="black" cx="183" cy="-43" rx="18" ry="18"/>
<text text-anchor="middle" x="183" y="-39.3" font-family="Times New Roman,serif" font-size="14.00">C</text>
</g>
<!-- A&#45;&gt;C -->
<g id="edge3" class="edge">
<title>A&#45;&gt;C</title>
<path fill="none" stroke="black" d="M36.14,-32.26C64.31,-34.34 120.66,-38.48 154.48,-40.97"/>
<polygon fill="black" stroke="black" points="154.37,-44.48 164.6,-41.72 154.89,-37.49 154.37,-44.48"/>
<text text-anchor="middle" x="104" y="-41.8" font-family="Times New Roman,serif" font-size="14.00">3</text>
</g>
<!-- B&#45;&gt;C -->
<g id="edge2" class="edge">
<title>B&#45;&gt;C</title>
<path fill="none" stroke="black" d="M120.58,-74.11C131.19,-68.73 145.45,-61.51 157.56,-55.38"/>
<polygon fill="black" stroke="black" points="159.36,-58.39 166.7,-50.75 156.2,-52.14 159.36,-58.39"/>
<text text-anchor="middle" x="143.5" y="-66.8" font-family="Times New Roman,serif" font-size="14.00">5</text>
</g>
<!-- D -->
<g id="node4" class="node">
<title>D</title>
<ellipse fill="none" stroke="black" cx="262" cy="-18" rx="18" ry="18"/>
<text text-anchor="middle" x="262" y="-14.3" font-family="Times New Roman,serif" font-size="14.00">D</text>
</g>
<!-- C&#45;&gt;D -->
<g id="edge4" class="edge">
<title>C&#45;&gt;D</title>
<path fill="none" stroke="black" d="M200.98,-40.23C208.72,-38.75 217.93,-36.67 226,-34 229.4,-32.87 232.91,-31.52 236.34,-30.08"/>
<polygon fill="black" stroke="black" points="237.92,-33.2 245.61,-25.91 235.06,-26.82 237.92,-33.2"/>
<text text-anchor="middle" x="222.5" y="-39.8" font-family="Times New Roman,serif" font-size="14.00">7</text>
</g>
<!-- D&#45;&gt;A -->
<g id="edge5" class="edge">
<title>D&#45;&gt;A</title>
<path fill="none" stroke="black" d="M244.43,-12.83C238.66,-11.27 232.1,-9.77 226,-9 222.91,-8.61 222.11,-8.83 219,-9 157.1,-12.39 84.9,-21.66 46.43,-27.02"/>
<polygon fill="black" stroke="black" points="45.48,-23.62 36.07,-28.48 46.46,-30.55 45.48,-23.62"/>
<text text-anchor="middle" x="143.5" y="-18.8" font-family="Times New Roman,serif" font-size="14.00">4</text>
</g>
<!-- D&#45;&gt;C -->
<g id="edge6" class="edge">
<title>D&#45;&gt;C</title>
<path fill="none" stroke="black" d="M244.23,-13.77C236.38,-12.55 227,-12.19 219,-15 213.58,-16.9 208.38,-20.03 203.73,-23.52"/>
<polygon fill="black" stroke="black" points="201.4,-20.9 195.99,-30.01 205.9,-26.26 201.4,-20.9"/>
<text text-anchor="middle" x="222.5" y="-18.8" font-family="Times New Roman,serif" font-size="14.00">6</text>
</g>
</g>
</svg>
